<svg width="24" height="24" viewBox="0 0 24 24" fill="none" xmlns="http://www.w3.org/2000/svg">
<g id="material-symbols-light:verified-rounded">
<path id="Vector" d="M10.95 13.43L9.15399 11.64C9.06066 11.5467 8.94699 11.4967 8.81299 11.49C8.67899 11.4833 8.55666 11.5353 8.44599 11.646C8.33933 11.7527 8.28599 11.8707 8.28599 12C8.28599 12.1293 8.33933 12.2473 8.44599 12.354L10.385 14.292C10.5463 14.454 10.7347 14.535 10.95 14.535C11.1653 14.535 11.3537 14.454 11.515 14.292L15.554 10.254C15.6513 10.1567 15.7023 10.042 15.707 9.91001C15.711 9.77801 15.66 9.65667 15.554 9.54601C15.4433 9.43601 15.3243 9.38001 15.197 9.37801C15.0697 9.37601 14.9507 9.43001 14.84 9.54001L10.95 13.43ZM8.66999 20.615L7.35399 18.415L4.87399 17.892C4.67466 17.8553 4.51599 17.7487 4.39799 17.572C4.27999 17.3953 4.23133 17.208 4.25199 17.01L4.48799 14.454L2.80599 12.534C2.66466 12.3893 2.59399 12.2113 2.59399 12C2.59399 11.7887 2.66466 11.6103 2.80599 11.465L4.48799 9.54601L4.25199 6.99001C4.23199 6.79134 4.28066 6.60401 4.39799 6.42801C4.51533 6.25201 4.67366 6.14534 4.87299 6.10801L7.35299 5.58501L8.66899 3.38501C8.77699 3.20634 8.92199 3.08301 9.10399 3.01501C9.28599 2.94634 9.47433 2.95534 9.66899 3.04201L12 4.02701L14.33 3.04201C14.5253 2.95534 14.714 2.94601 14.896 3.01401C15.078 3.08267 15.223 3.20601 15.331 3.38401L16.646 5.58401L19.126 6.10801C19.3253 6.14467 19.484 6.25134 19.602 6.42801C19.72 6.60467 19.7687 6.79201 19.748 6.99001L19.512 9.54601L21.194 11.466C21.3353 11.6107 21.406 11.7887 21.406 12C21.406 12.2113 21.3353 12.3897 21.194 12.535L19.512 14.454L19.748 17.01C19.768 17.2087 19.7193 17.396 19.602 17.572C19.4847 17.748 19.3263 17.8547 19.127 17.892L16.647 18.415L15.331 20.615C15.223 20.7937 15.078 20.917 14.896 20.985C14.714 21.0537 14.5257 21.0447 14.331 20.958L12 19.973L9.66999 20.958C9.47466 21.0447 9.28599 21.054 9.10399 20.986C8.92199 20.9173 8.77699 20.794 8.66899 20.616L8.66999 20.615Z" fill="#2B98EE"/>
</g>
</svg>
