<svg width="20" height="21" viewBox="0 0 20 21" fill="none" xmlns="http://www.w3.org/2000/svg">
  <g id="solar:phone-bold">
    <path id="Vector"
      d="M13.7967 11.2927L13.4175 11.6891C13.4175 11.6891 12.515 12.6306 10.0525 10.0599C7.59002 7.48912 8.49252 6.54762 8.49252 6.54762L8.73085 6.29737C9.32002 5.68312 9.37585 4.69612 8.86169 3.97512L7.81169 2.5025C7.17502 1.61 5.94586 1.49187 5.21669 2.25312L3.90836 3.61812C3.54752 3.99612 3.30585 4.48437 3.33502 5.02687C3.41002 6.4155 4.00835 9.40187 7.34502 12.8861C10.8842 16.5804 14.205 16.7274 15.5625 16.5944C15.9925 16.5524 16.3659 16.3231 16.6667 16.0081L17.85 14.7726C18.65 13.9387 18.425 12.5081 17.4017 11.9245L15.81 11.0154C15.1384 10.6321 14.3217 10.745 13.7967 11.2927Z"
      fill="white" />
  </g>
</svg>